<svg width="150" height="150" viewBox="0 0 150 150" fill="none" xmlns="http://www.w3.org/2000/svg">
<rect x="0.5" y="0.5" width="149" height="149" rx="9.5" fill="white" stroke="#A56DFF"/>
<path d="M65.374 104.76H67.432V110.864C66.746 110.892 66.046 110.92 65.374 110.934V104.76ZM68.552 104.76H69.896V103.836H62.91V104.76H64.254V110.948C63.666 110.962 63.106 110.962 62.588 110.962L62.728 111.928C64.94 111.928 67.922 111.886 70.554 111.466L70.47 110.612C69.854 110.696 69.21 110.752 68.552 110.794V104.76ZM74.474 107.504H72.402V102.492H71.254V115.036H72.402V108.456H74.474V107.504ZM85.9249 102.478H84.7769V108.918H85.9249V102.478ZM77.0209 105.726C77.0209 104.634 77.9309 103.864 79.1489 103.864C80.3809 103.864 81.2769 104.634 81.2769 105.726C81.2769 106.804 80.3809 107.574 79.1489 107.574C77.9309 107.574 77.0209 106.804 77.0209 105.726ZM82.3969 105.726C82.3969 104.06 81.0249 102.926 79.1489 102.926C77.2729 102.926 75.9149 104.06 75.9149 105.726C75.9149 107.378 77.2729 108.498 79.1489 108.498C81.0249 108.498 82.3969 107.378 82.3969 105.726ZM78.9529 113.958V112.572H85.9249V109.534H77.7909V110.444H84.7909V111.718H77.8189V114.868H86.3449V113.958H78.9529Z" fill="#242424"/>
<path d="M83.3643 71.2431L88.7786 65.8287C88.7786 65.8287 91.4858 63.1215 87.425 59.0608C83.3643 55 80.6571 57.7072 80.6571 57.7072C80.6571 57.7072 76.5963 61.768 73.8891 64.4751C71.182 67.1823 71.182 69.8895 72.5355 71.2431" stroke="#873DFF" stroke-width="2" stroke-linecap="round" stroke-linejoin="round"/>
<path d="M67.1211 71.243L61.7067 76.6574C61.7067 76.6574 58.9995 79.3645 63.0603 83.4253C67.1211 87.4861 69.8283 84.7789 69.8283 84.7789C69.8283 84.7789 73.2123 81.3949 75.9194 78.6877C78.6266 75.9805 79.3034 72.5966 77.9498 71.243" stroke="#873DFF" stroke-width="2" stroke-linecap="round" stroke-linejoin="round"/>
</svg>
