<svg width="150" height="150" viewBox="0 0 150 150" fill="none" xmlns="http://www.w3.org/2000/svg">
<rect x="0.5" y="0.5" width="149" height="149" rx="9.5" fill="white" stroke="#A56DFF"/>
<path d="M44.956 103.57H43.822V105.824C43.822 108.106 42.394 110.514 40.588 111.438L41.274 112.362C42.688 111.606 43.85 110.038 44.396 108.204C44.97 109.926 46.104 111.396 47.434 112.11L48.148 111.2C46.384 110.318 44.956 108.036 44.956 105.824V103.57ZM52.474 107.574H50.402V102.492H49.254V115.036H50.402V108.526H52.474V107.574ZM63.9249 102.492H62.7769V111.676H63.9249V102.492ZM61.2929 108.974C59.4449 108.358 58.1429 106.832 58.1429 105.138V104.452H60.9849V103.528H54.0969V104.452H56.9669V105.138C56.9669 106.93 55.6929 108.568 53.7889 109.226L54.3909 110.122C55.8749 109.59 57.0369 108.456 57.5689 107.028C58.1429 108.344 59.2909 109.38 60.7329 109.884L61.2929 108.974ZM56.9949 113.818V110.808H55.8469V114.756H64.3029V113.818H56.9949ZM66.8078 116.66C68.0678 116.128 68.8518 115.078 68.8518 113.734C68.8518 112.796 68.4458 112.222 67.7738 112.222C67.2558 112.222 66.8078 112.572 66.8078 113.118C66.8078 113.706 67.2558 114.014 67.7458 114.014C67.8018 114.014 67.8438 114.014 67.8998 114C67.8998 114.826 67.3818 115.512 66.4998 115.904L66.8078 116.66ZM76.0803 114.14C74.0923 114.14 72.9303 113.65 72.9303 112.768C72.9303 111.886 74.0923 111.396 76.0803 111.396C78.0403 111.396 79.2023 111.886 79.2023 112.768C79.2023 113.65 78.0403 114.14 76.0803 114.14ZM76.0803 110.5C73.3923 110.5 71.7683 111.312 71.7683 112.768C71.7683 114.224 73.3923 115.036 76.0803 115.036C78.7403 115.036 80.3643 114.224 80.3643 112.768C80.3643 111.312 78.7403 110.5 76.0803 110.5ZM76.6543 108.68V107.224H80.4343V106.3H72.9723V103.976H80.3503V103.052H71.8243V107.224H75.5063V108.68H70.3963V109.604H81.7643V108.68H76.6543ZM84.5632 106.202C84.5632 105.04 85.4872 104.2 86.7052 104.2C87.9372 104.2 88.8332 105.04 88.8332 106.202C88.8332 107.378 87.9372 108.218 86.7052 108.218C85.4872 108.218 84.5632 107.378 84.5632 106.202ZM92.4592 105.222V107.182H89.7572C89.8692 106.874 89.9252 106.552 89.9252 106.202C89.9252 105.838 89.8692 105.516 89.7712 105.222H92.4592ZM92.4592 108.12V109.912H93.6212V102.478H92.4592V104.284H89.2392C88.6652 103.64 87.7692 103.234 86.7052 103.234C84.8432 103.234 83.4712 104.452 83.4712 106.202C83.4712 107.966 84.8432 109.198 86.7052 109.198C87.7692 109.198 88.6652 108.792 89.2392 108.12H92.4592ZM89.4632 114.112C87.5732 114.112 86.4252 113.552 86.4252 112.614C86.4252 111.662 87.5732 111.102 89.4632 111.102C91.3812 111.102 92.5292 111.662 92.5292 112.614C92.5292 113.552 91.3812 114.112 89.4632 114.112ZM89.4632 110.206C86.8872 110.206 85.2912 111.088 85.2912 112.614C85.2912 114.14 86.8872 115.022 89.4632 115.022C92.0532 115.022 93.6632 114.14 93.6632 112.614C93.6632 111.088 92.0532 110.206 89.4632 110.206ZM103.406 108.386C101.6 107.77 100.368 106.202 100.368 104.508V103.122H99.2201V104.41C99.2201 106.328 98.0021 108.036 96.0981 108.722L96.7001 109.632C98.1701 109.072 99.2901 107.924 99.8081 106.454C100.368 107.742 101.446 108.778 102.804 109.282L103.406 108.386ZM101.908 114.126C100.046 114.126 98.9121 113.608 98.9121 112.74C98.9121 111.858 100.046 111.34 101.908 111.34C103.756 111.34 104.89 111.858 104.89 112.74C104.89 113.608 103.756 114.126 101.908 114.126ZM101.908 110.444C99.3461 110.444 97.7641 111.27 97.7641 112.74C97.7641 114.196 99.3461 115.022 101.908 115.022C104.456 115.022 106.038 114.196 106.038 112.74C106.038 111.27 104.456 110.444 101.908 110.444ZM105.898 105.726V102.492H104.75V110.094H105.898V106.678H107.76V105.726H105.898Z" fill="#242424"/>
<path d="M97.8156 85.0653L95.2827 94.5181C95.1398 95.0516 94.5914 95.3682 94.058 95.2252L58.4822 85.6927C57.9487 85.5498 57.6321 85.0014 57.7751 84.468L59.1913 79.1826M97.8156 85.0653L104.815 58.9423C104.958 58.4089 104.642 57.8605 104.108 57.7176L68.5323 48.1851C67.9989 48.0421 67.4505 48.3587 67.3076 48.8922L59.1913 79.1826M97.8156 85.0653L87.9295 73.8161C87.6926 73.5465 87.3295 73.4246 86.9779 73.4965L59.1913 79.1826" stroke="#873DFF" stroke-width="2" stroke-linejoin="round"/>
<circle cx="74.6348" cy="63.2205" r="4.31453" transform="rotate(15 74.6348 63.2205)" stroke="#873DFF" stroke-width="2" stroke-linejoin="round"/>
<path d="M50.4717 51.1785H87.3024C87.8547 51.1785 88.3024 51.6262 88.3024 52.1785V79.2229V89.0092C88.3024 89.5615 87.8547 90.0092 87.3024 90.0092H50.4717C49.9194 90.0092 49.4717 89.5615 49.4717 89.0092V83.5374V52.1785C49.4717 51.6262 49.9194 51.1785 50.4717 51.1785Z" fill="white"/>
<path d="M88.3024 79.2229V89.0092C88.3024 89.5615 87.8547 90.0092 87.3024 90.0092H50.4717C49.9194 90.0092 49.4717 89.5615 49.4717 89.0092V83.5374M88.3024 79.2229V52.1785C88.3024 51.6262 87.8547 51.1785 87.3024 51.1785H50.4717C49.9194 51.1785 49.4717 51.6262 49.4717 52.1785V83.5374M88.3024 79.2229L75.8417 70.9158C75.5431 70.7167 75.1608 70.6929 74.8398 70.8534L49.4717 83.5374" stroke="#873DFF" stroke-width="2" stroke-linejoin="round"/>
<circle cx="60.2589" cy="64.1219" r="4.31453" fill="white" stroke="#873DFF" stroke-width="2" stroke-linejoin="round"/>
</svg>
